<?xml version="1.0" standalone="no"?>
<!DOCTYPE svg PUBLIC "-//W3C//DTD SVG 20010904//EN"
 "http://www.w3.org/TR/2001/REC-SVG-20010904/DTD/svg10.dtd">
<svg version="1.0" xmlns="http://www.w3.org/2000/svg"
 width="2513.000000pt" height="2360.000000pt" viewBox="0 0 2513.000000 2360.000000"
 preserveAspectRatio="xMidYMid meet">
<metadata>
Created by potrace 1.16, written by Peter Selinger 2001-2019
</metadata>
<g transform="translate(0.000000,2360.000000) scale(0.100000,-0.100000)"
fill="#f4f4f4" stroke="none">
<path d="M17990 23585 c-416 -89 -757 -522 -849 -1080 -40 -242 -11 -504 83
-737 39 -96 141 -309 208 -433 330 -609 427 -822 493 -1081 45 -174 61 -332
46 -456 -20 -160 -22 -172 -31 -193 -5 -11 -18 -46 -29 -77 -26 -71 -82 -185
-108 -217 l-20 -25 -87 70 c-114 90 -180 134 -296 193 -122 63 -285 117 -412
137 -138 22 -379 15 -499 -14 -154 -38 -279 -86 -279 -108 0 -8 -5 -14 -11
-14 -6 0 -4 -7 5 -15 8 -8 18 -15 22 -15 3 0 1 7 -6 15 -8 9 -8 15 -2 15 11 0
19 -19 27 -61 2 -12 7 -24 10 -27 2 -3 62 14 132 36 181 58 229 66 398 66 251
-1 461 -67 693 -217 68 -44 231 -176 266 -215 12 -14 31 -22 52 -22 29 0 39 7
72 53 120 163 193 333 226 523 17 97 20 305 5 394 -5 30 -11 71 -14 90 -20
124 -87 332 -165 510 -48 110 -196 403 -290 575 -191 349 -292 571 -337 743
-21 80 -25 123 -26 247 -3 199 1 241 34 365 51 195 109 323 222 488 51 75 93
122 151 171 127 106 145 117 257 155 91 31 119 36 196 36 123 0 184 -13 278
-59 124 -61 218 -169 266 -306 22 -62 46 -174 53 -245 2 -28 17 -67 40 -104
85 -141 106 -305 57 -454 -13 -40 -27 -75 -31 -77 -4 -3 -24 28 -44 68 -19 39
-41 81 -48 92 -185 285 -250 352 -414 426 -99 45 -185 62 -287 56 -76 -4 -98
-10 -164 -42 -137 -68 -226 -182 -275 -350 -43 -151 -25 -429 39 -608 58 -164
128 -281 387 -652 410 -587 564 -896 648 -1300 30 -142 32 -162 32 -375 0
-239 -10 -326 -59 -520 -45 -177 -79 -268 -167 -445 -150 -300 -414 -629 -643
-802 -350 -263 -512 -397 -570 -473 -126 -164 -214 -437 -249 -775 -47 -456
-57 -607 -46 -677 7 -37 15 -70 19 -72 19 -12 11 -88 -15 -137 -45 -89 -53
-135 -84 -479 -40 -443 -39 -433 -55 -605 -8 -82 -15 -173 -15 -201 l0 -51 52
-6 c77 -10 78 -8 93 193 4 47 9 103 11 125 2 22 21 230 43 462 l40 421 38 79
c33 67 38 87 37 143 -1 36 -8 82 -17 104 -22 49 -21 96 3 346 10 113 22 239
25 280 16 212 66 440 129 590 59 139 112 207 249 318 130 105 360 284 442 344
67 48 243 231 337 348 206 259 367 561 453 850 9 31 32 221 52 435 l35 380
-21 140 c-61 400 -223 764 -560 1255 -66 96 -175 256 -241 355 -67 99 -127
187 -133 195 -20 26 -124 252 -140 305 -41 134 -47 396 -11 499 65 189 224
296 396 266 93 -17 221 -82 292 -149 93 -88 243 -325 277 -439 23 -78 72 -111
144 -98 41 8 71 43 114 136 92 198 85 425 -19 616 -30 55 -43 94 -56 170 -55
325 -217 528 -489 614 -83 26 -277 34 -365 15z"/>
<path d="M16065 19504 c-196 -112 -339 -224 -350 -275 -5 -24 -11 -30 -26 -26
-10 3 -17 0 -16 -7 1 -6 -6 -10 -15 -8 -9 1 -19 -2 -23 -8 -3 -6 0 -7 9 -4 10
4 16 1 16 -7 0 -11 2 -11 10 1 13 21 23 5 16 -25 -7 -26 -7 -26 -24 -7 -13 15
-22 18 -37 11 -18 -8 -18 -8 4 -6 13 1 26 -4 28 -11 3 -7 -1 -10 -11 -6 -9 3
-16 1 -16 -5 0 -6 3 -10 8 -10 22 4 30 -4 28 -25 -6 -48 10 -43 89 26 104 91
207 168 313 234 101 64 126 97 110 146 -6 18 -12 39 -14 46 -5 18 -12 16 -99
-34z"/>
<path d="M15482 19038 c-167 -173 -330 -394 -472 -638 -155 -268 -277 -549
-359 -825 -33 -112 -71 -267 -75 -305 -2 -19 -6 -42 -10 -50 -24 -62 -65 -497
-52 -563 10 -53 41 -65 145 -56 182 16 331 101 431 248 56 82 64 85 310 92
189 5 222 8 272 28 71 28 127 72 178 141 78 106 89 117 146 155 31 21 91 49
133 63 65 22 95 25 206 26 115 1 136 -2 181 -22 62 -28 125 -92 148 -150 55
-143 60 -413 16 -888 -17 -179 -33 -338 -36 -352 -4 -15 -22 -60 -41 -100 -40
-84 -45 -144 -18 -236 22 -74 21 -134 -4 -401 -12 -126 -35 -373 -51 -549 -23
-241 -28 -322 -19 -332 7 -8 31 -14 60 -14 42 0 51 3 59 23 5 12 18 130 30
262 29 326 26 296 56 610 27 290 26 350 -2 458 l-17 62 28 54 c50 99 55 132
91 521 30 322 34 412 30 550 -8 255 -35 376 -108 473 -92 122 -200 168 -391
168 -149 -1 -251 -21 -353 -71 -97 -47 -157 -99 -232 -199 -101 -133 -133
-145 -397 -146 -185 -1 -192 -2 -250 -29 -72 -33 -87 -46 -132 -113 -66 -100
-179 -175 -286 -189 l-47 -7 0 44 c0 75 29 316 51 432 12 62 22 119 22 127 0
8 3 20 7 25 4 6 13 33 20 60 68 267 228 655 368 890 47 80 193 305 213 330 9
11 54 66 100 123 46 57 94 116 106 131 17 20 23 42 25 93 1 43 6 65 13 61 5
-3 4 0 -2 8 -16 17 -17 43 -1 33 7 -4 8 -3 4 4 -12 20 -21 14 -94 -60z"/>
<path d="M9120 17803 c-119 -11 -245 -75 -285 -143 -20 -34 -20 -53 -25 -774
l-5 -740 -29 44 c-95 144 -270 266 -431 301 -33 7 -107 13 -165 13 -213 0
-386 -79 -556 -255 -127 -133 -209 -279 -261 -464 l-28 -100 0 -370 0 -370 28
-100 c85 -304 288 -563 530 -675 104 -48 162 -60 291 -60 258 0 519 136 646
337 l30 47 0 -67 c0 -37 6 -83 14 -101 19 -45 79 -101 141 -131 194 -95 499
-10 544 152 15 53 15 3223 0 3276 -34 125 -221 202 -439 180z m-542 -1985 c71
-26 163 -112 199 -186 l28 -57 0 -276 0 -276 -30 -43 c-51 -75 -134 -150 -199
-181 -52 -25 -73 -29 -143 -29 -72 0 -88 4 -144 33 -75 38 -148 122 -181 207
-18 48 -22 81 -26 250 -6 288 11 365 107 472 97 109 241 140 389 86z"/>
<path d="M1815 17744 c-171 -28 -296 -97 -347 -191 -25 -46 -948 -3056 -948
-3091 0 -133 191 -269 423 -303 124 -17 223 7 276 67 34 38 28 19 129 392 l77
283 513 0 c283 0 515 -1 517 -3 2 -2 43 -145 90 -318 89 -327 105 -364 163
-394 54 -28 142 -38 225 -27 238 33 427 166 427 299 0 16 -189 647 -421 1403
-564 1844 -511 1682 -565 1739 -51 55 -133 101 -219 125 -60 16 -280 28 -340
19z m304 -1607 c96 -351 171 -640 169 -643 -3 -2 -162 -3 -355 -2 l-350 3 176
647 c97 356 179 644 182 640 3 -4 83 -294 178 -645z"/>
<path d="M3832 17601 c-104 -36 -198 -121 -234 -213 -10 -25 -17 -72 -17 -114
-1 -60 4 -80 30 -132 37 -74 101 -134 189 -176 61 -29 72 -31 175 -31 105 0
114 2 177 33 81 40 152 109 187 182 34 72 36 181 4 251 -42 93 -144 178 -245
205 -75 20 -201 17 -266 -5z"/>
<path d="M19012 16713 c-51 -25 -98 -87 -159 -210 l-56 -112 -36 16 c-145 63
-315 95 -516 97 -154 1 -238 -9 -374 -46 -244 -66 -449 -224 -546 -422 -64
-129 -78 -204 -73 -406 4 -144 8 -175 30 -243 38 -115 99 -210 194 -302 l82
-81 -49 -39 c-68 -56 -144 -156 -170 -223 -27 -73 -29 -177 -4 -252 14 -42 33
-70 82 -118 34 -35 63 -65 63 -66 0 -2 -21 -17 -47 -34 -110 -71 -202 -181
-238 -283 -86 -242 10 -513 236 -666 245 -168 624 -254 981 -225 447 38 773
207 898 468 90 187 92 439 6 618 -60 125 -217 261 -364 316 -80 30 -326 84
-527 115 -308 47 -404 70 -456 106 -32 23 -38 43 -27 88 8 30 12 33 38 27 171
-34 429 -26 604 18 271 69 492 234 600 448 58 115 76 198 76 355 0 205 -40
342 -138 472 -49 65 -54 54 80 163 111 90 147 131 155 182 10 62 -5 102 -58
160 -79 86 -203 121 -287 79z m-642 -677 c53 -26 100 -84 132 -163 20 -52 23
-74 22 -213 0 -138 -2 -161 -23 -213 -51 -129 -132 -191 -247 -190 -116 1
-195 63 -245 190 -27 70 -38 277 -20 363 14 64 53 145 89 183 71 76 190 93
292 43z m-162 -1881 c125 -18 263 -58 327 -94 106 -60 140 -184 82 -303 -100
-205 -466 -249 -650 -78 -64 58 -87 113 -87 203 0 104 38 178 122 242 33 25
71 45 84 45 13 0 68 -7 122 -15z"/>
<path d="M10710 16500 c-319 -31 -628 -170 -686 -307 -28 -66 -11 -211 38
-312 32 -66 89 -117 148 -131 59 -14 85 -7 211 56 150 74 212 89 384 89 137 0
155 -2 203 -24 106 -48 178 -165 189 -307 l6 -71 -224 -6 c-321 -9 -502 -37
-684 -108 -211 -81 -335 -214 -391 -419 -25 -89 -25 -318 -1 -410 74 -280 292
-440 601 -440 248 0 437 85 649 289 l97 94 0 -72 c0 -84 15 -124 61 -168 134
-126 425 -129 568 -7 81 70 76 18 76 754 0 688 -2 733 -46 864 -71 213 -218
395 -405 499 -188 105 -525 163 -794 137z m490 -1402 c-1 -47 -29 -157 -53
-204 -35 -69 -125 -165 -187 -198 -73 -40 -162 -47 -222 -17 -64 31 -92 85
-92 176 0 97 26 144 106 196 34 21 66 39 72 40 6 0 38 6 71 14 33 7 115 14
183 14 120 1 122 1 122 -21z"/>
<path d="M13620 16500 c-94 -11 -144 -27 -240 -72 -68 -33 -100 -56 -165 -122
-44 -45 -89 -98 -100 -119 -11 -20 -23 -37 -27 -37 -5 0 -8 34 -8 75 0 85 -11
113 -62 162 -150 143 -555 102 -624 -63 -12 -28 -14 -203 -14 -1005 l0 -972
25 -42 c63 -108 256 -173 430 -145 120 19 244 90 281 161 12 23 14 120 14 601
0 585 4 665 39 744 115 259 485 227 584 -50 8 -21 13 -242 17 -656 6 -698 1
-656 77 -719 43 -36 159 -75 248 -85 116 -12 274 22 357 77 18 12 43 42 56 67
l22 44 0 591 c0 714 2 729 103 827 178 174 471 76 524 -176 9 -45 13 -212 13
-641 0 -542 2 -583 19 -621 50 -109 262 -191 429 -165 179 28 293 111 307 225
4 29 5 327 2 662 -4 581 -5 614 -26 708 -41 187 -105 319 -218 451 -223 262
-574 365 -883 260 -201 -68 -341 -189 -475 -409 l-17 -28 -46 94 c-144 288
-356 414 -642 378z"/>
<path d="M20515 16495 c-408 -56 -770 -345 -895 -716 -38 -112 -50 -219 -50
-461 0 -265 9 -348 54 -481 47 -137 112 -241 234 -368 183 -192 380 -302 623
-349 70 -14 296 -14 382 0 146 23 319 93 450 182 88 60 247 217 307 304 62 90
111 194 142 300 22 75 23 95 23 409 0 314 -1 334 -23 409 -51 176 -127 303
-266 442 -202 202 -412 301 -701 334 -111 12 -165 11 -280 -5z m265 -667 c98
-30 190 -120 231 -226 19 -49 23 -83 27 -233 5 -212 -7 -322 -46 -398 -33 -66
-92 -128 -157 -167 -42 -24 -62 -29 -142 -32 -86 -4 -97 -2 -150 24 -73 35
-133 96 -175 176 l-33 63 -3 247 c-4 291 2 322 76 420 94 123 229 169 372 126z"/>
<path d="M22845 16498 c-373 -36 -609 -204 -711 -503 -36 -106 -46 -304 -20
-405 38 -150 141 -286 279 -368 67 -40 238 -102 380 -137 372 -93 498 -176
457 -300 -25 -76 -126 -115 -298 -115 -169 0 -292 38 -492 151 -80 45 -105 54
-155 57 -53 3 -65 0 -105 -27 -81 -54 -150 -190 -150 -293 0 -193 267 -372
647 -433 156 -25 466 -19 602 11 258 58 453 197 546 389 66 136 89 306 61 463
-20 115 -60 205 -130 291 -121 150 -242 210 -651 321 -290 79 -355 114 -355
191 0 46 34 90 94 122 37 20 55 22 186 21 l145 0 115 -43 c237 -88 265 -95
326 -82 42 10 64 22 99 57 57 58 117 180 123 251 7 88 -4 120 -61 177 -110
109 -339 184 -628 206 -150 11 -176 11 -304 -2z"/>
<path d="M3875 16470 c-113 -15 -207 -64 -248 -130 l-22 -35 -5 -1225 c-4
-922 -9 -1234 -18 -1261 -19 -57 -51 -80 -126 -89 -149 -18 -244 -112 -265
-262 -24 -176 47 -301 199 -349 85 -28 270 -30 380 -4 288 66 486 289 562 635
l23 105 0 1220 c0 1135 -1 1222 -17 1251 -39 72 -146 127 -278 143 -93 12 -98
12 -185 1z"/>
<path d="M5050 16466 c-132 -24 -247 -102 -269 -183 -18 -63 -14 -1174 3
-1293 30 -198 115 -365 268 -526 249 -262 557 -378 936 -352 475 32 920 417
991 858 7 40 11 304 11 696 l0 631 -23 34 c-106 158 -441 194 -631 68 -26 -18
-58 -49 -71 -69 l-24 -38 -3 -619 -3 -618 -32 -67 c-41 -87 -100 -150 -176
-188 -52 -26 -71 -30 -142 -30 -71 0 -90 4 -142 30 -74 37 -145 111 -181 188
l-27 57 -5 620 c-5 681 -1 633 -66 699 -41 41 -157 93 -234 106 -78 12 -96 12
-180 -4z"/>
<path d="M805 11246 c-253 -41 -458 -138 -611 -291 -89 -89 -144 -177 -168
-270 -14 -53 -16 -568 -16 -5005 0 -4435 2 -4952 16 -5005 61 -238 323 -454
649 -536 92 -23 158 -32 280 -39 209 -12 2617 -12 2980 0 298 10 404 18 635
51 834 119 1533 437 2034 927 558 545 846 1298 896 2342 13 275 13 4273 0
4530 -34 655 -154 1170 -379 1618 -207 412 -477 721 -881 1008 -449 319 -1027
538 -1655 628 -363 52 -281 50 -2050 52 -1298 2 -1667 0 -1730 -10z m3080
-2069 c598 -22 1005 -328 1158 -872 80 -287 77 -169 77 -2621 0 -1441 -4
-2207 -10 -2275 -40 -388 -171 -701 -377 -900 -146 -141 -303 -226 -525 -285
-169 -44 -208 -46 -1030 -51 l-788 -4 0 3504 c0 1927 2 3506 4 3508 6 5 1326
2 1491 -4z"/>
<path d="M12230 11249 c-907 -64 -1649 -330 -2240 -803 -298 -238 -537 -538
-710 -891 -193 -393 -289 -748 -357 -1330 -15 -126 -17 -379 -21 -2470 -2
-1592 0 -2385 8 -2505 38 -625 153 -1102 370 -1545 133 -269 269 -463 475
-674 511 -525 1261 -868 2155 -985 226 -30 420 -40 740 -40 345 0 504 10 795
50 1067 147 1937 637 2411 1359 283 431 445 930 521 1610 17 150 18 318 18
2610 0 2695 3 2526 -60 2915 -137 836 -482 1466 -1045 1911 -558 440 -1217
688 -2065 775 -187 19 -800 27 -995 13z m675 -2080 c118 -14 291 -58 387 -98
433 -181 669 -572 718 -1192 8 -103 10 -768 7 -2354 -3 -2009 -5 -2219 -20
-2304 -66 -373 -166 -597 -352 -786 -174 -177 -364 -273 -654 -327 -97 -19
-153 -22 -346 -22 -197 -1 -247 2 -345 21 -539 103 -855 425 -969 983 -47 233
-46 161 -46 2535 0 2370 -1 2315 46 2549 117 579 476 921 1047 995 99 13 423
13 527 0z"/>
<path d="M18790 11253 c-103 -11 -266 -49 -345 -80 -234 -92 -374 -203 -450
-358 -71 -143 -65 307 -65 -5138 0 -5441 -5 -4991 65 -5134 94 -191 310 -334
620 -409 72 -17 152 -27 285 -35 121 -6 1124 -9 2905 -7 l2720 3 70 23 c179
60 291 165 390 362 108 214 153 471 134 762 -14 205 -56 371 -135 530 -95 193
-213 308 -377 370 l-62 23 -2115 5 -2115 5 0 1295 0 1295 1215 5 c1348 6 1264
1 1390 72 169 94 302 288 367 535 45 175 44 429 -4 618 -57 227 -214 455 -368
533 -144 72 -34 66 -1385 72 l-1215 5 -3 1288 c-2 1221 -1 1287 15 1287 10 0
954 1 2098 3 1950 2 2084 3 2140 20 101 29 180 74 248 140 199 193 307 504
309 887 0 245 -37 437 -121 616 -96 204 -223 330 -390 387 l-66 22 -2860 1
c-1573 0 -2876 -1 -2895 -3z"/>
</g>
</svg>
