<svg id="visual" viewBox="0 0 900 600" width="900" height="600" xmlns="http://www.w3.org/2000/svg" xmlns:xlink="http://www.w3.org/1999/xlink" version="1.1"><path d="M0 590L16.7 584.7C33.3 579.3 66.7 568.7 100 563C133.3 557.3 166.7 556.7 200 556.2C233.3 555.7 266.7 555.3 300 556.7C333.3 558 366.7 561 400 563.7C433.3 566.3 466.7 568.7 500 571C533.3 573.3 566.7 575.7 600 578.3C633.3 581 666.7 584 700 581.8C733.3 579.7 766.7 572.3 800 571.5C833.3 570.7 866.7 576.3 883.3 579.2L900 582L900 601L883.3 601C866.7 601 833.3 601 800 601C766.7 601 733.3 601 700 601C666.7 601 633.3 601 600 601C566.7 601 533.3 601 500 601C466.7 601 433.3 601 400 601C366.7 601 333.3 601 300 601C266.7 601 233.3 601 200 601C166.7 601 133.3 601 100 601C66.7 601 33.3 601 16.7 601L0 601Z" fill="#d5ecf5" stroke-linecap="round" stroke-linejoin="miter"></path></svg>